<svg xmlns="http://www.w3.org/2000/svg" viewBox="0 0 64 64" role="img" aria-label="Lumy logo">
  <defs>
    <linearGradient id="L-stroke" x1="0%" y1="0%" x2="100%" y2="100%">
      <stop offset="0%" stop-color="#a855f7"/>
      <stop offset="50%" stop-color="#6366f1"/>
      <stop offset="100%" stop-color="#22d3ee"/>
    </linearGradient>
    <linearGradient id="bg" x1="0%" y1="0%" x2="100%" y2="100%">
      <stop offset="0%" stop-color="#0f172a"/>
      <stop offset="100%" stop-color="#0b1224"/>
    </linearGradient>
    <filter id="shadow" x="-20%" y="-20%" width="140%" height="140%">
      <feDropShadow dx="0" dy="4" stdDeviation="4" flood-color="#0ea5e9" flood-opacity=".35"/>
    </filter>
  </defs>
  <rect x="4" y="4" width="56" height="56" rx="14" fill="url(#bg)"/>
  <rect x="10" y="10" width="44" height="44" rx="12" fill="#0b1224" stroke="rgba(255,255,255,0.06)" />
  <path d="M22 18c-1.1 0-2 .9-2 2v24c0 1.1.9 2 2 2h18c1.1 0 2-.9 2-2v-4c0-1.1-.9-2-2-2H28V20c0-1.1-.9-2-2-2Z"
        fill="none" stroke="url(#L-stroke)" stroke-width="5.5" stroke-linecap="round" stroke-linejoin="round" filter="url(#shadow)"/>
  <circle cx="45" cy="45" r="4.2" fill="#22d3ee" opacity=".95"/>
</svg>
